<?xml version="1.0" encoding="UTF-8" standalone="no"?>
<!-- Created with Inkscape (http://www.inkscape.org/) -->

<svg
   xmlns:dc="http://purl.org/dc/elements/1.1/"
   xmlns:cc="http://creativecommons.org/ns#"
   xmlns:rdf="http://www.w3.org/1999/02/22-rdf-syntax-ns#"
   xmlns:svg="http://www.w3.org/2000/svg"
   xmlns="http://www.w3.org/2000/svg"
   xmlns:sodipodi="http://sodipodi.sourceforge.net/DTD/sodipodi-0.dtd"
   xmlns:inkscape="http://www.inkscape.org/namespaces/inkscape"
   width="56.221771mm"
   height="14.363642mm"
   viewBox="0 0 56.221771 14.363642"
   version="1.1"
   id="svg8"
   sodipodi:docname="logo.svg"
   inkscape:version="0.92.3 (2405546, 2018-03-11)">
  <defs
     id="defs2" />
  <sodipodi:namedview
     id="base"
     pagecolor="#ffffff"
     bordercolor="#666666"
     borderopacity="1.0"
     inkscape:pageopacity="0.0"
     inkscape:pageshadow="2"
     inkscape:zoom="5.6568543"
     inkscape:cx="69.472794"
     inkscape:cy="14.861609"
     inkscape:document-units="mm"
     inkscape:current-layer="layer1"
     showgrid="false"
     inkscape:window-width="2560"
     inkscape:window-height="995"
     inkscape:window-x="0"
     inkscape:window-y="0"
     inkscape:window-maximized="1"
     fit-margin-top="1"
     fit-margin-left="1"
     fit-margin-right="1"
     fit-margin-bottom="1" />
  <metadata
     id="metadata5">
    <rdf:RDF>
      <cc:Work
         rdf:about="">
        <dc:format>image/svg+xml</dc:format>
        <dc:type
           rdf:resource="http://purl.org/dc/dcmitype/StillImage" />
        <dc:title />
      </cc:Work>
    </rdf:RDF>
  </metadata>
  <g
     inkscape:label="Layer 1"
     inkscape:groupmode="layer"
     id="layer1"
     transform="translate(-16.013215,-74.960706)">
    <path
       d="m 28.788202,82.522527 h 1.844848 v -1.152384 h -1.736328 q -0.516764,0 -0.713135,0.139526 -0.19637,0.139526 -0.19637,0.485758 0,0.294556 0.155029,0.413412 0.160197,0.113688 0.645956,0.113688 z m -1.958537,-4.454508 h 3.017903 q 1.14205,0 1.720826,0.527099 0.578776,0.521932 0.578776,1.555461 v 3.493327 h -3.958415 q -0.831991,0 -1.281576,-0.418579 -0.444417,-0.41858 -0.444417,-1.188558 0,-0.950847 0.511597,-1.364258 0.516764,-0.413412 1.71049,-0.413412 h 1.937866 v -0.139526 q 0,-0.496094 -0.294556,-0.697632 -0.289388,-0.201538 -1.038696,-0.201538 h -2.459798 z"
       style="font-style:normal;font-variant:normal;font-weight:normal;font-stretch:normal;font-size:medium;line-height:1.25;font-family:'HandelGothic BT';-inkscape-font-specification:'HandelGothic BT';letter-spacing:0px;word-spacing:0px;fill:#0093dd;fill-opacity:1;stroke:none;stroke-width:0.26458332"
       id="path831"
       inkscape:connector-curvature="0" />
    <path
       d="m 33.433913,78.068019 h 5.653401 q 1.229899,0 1.772502,0.480591 0.542602,0.48059 0.542602,1.560628 v 3.534668 h -1.483113 v -3.343465 q 0,-0.61495 -0.186035,-0.81132 -0.186036,-0.196371 -0.764812,-0.196371 h -0.826822 v 4.351156 H 36.637851 V 79.29275 h -1.720825 v 4.351156 h -1.483113 z"
       style="font-style:normal;font-variant:normal;font-weight:normal;font-stretch:normal;font-size:medium;line-height:1.25;font-family:'HandelGothic BT';-inkscape-font-specification:'HandelGothic BT';letter-spacing:0px;word-spacing:0px;fill:#0093dd;fill-opacity:1;stroke:none;stroke-width:0.26458332"
       id="path833"
       inkscape:connector-curvature="0" />
    <path
       d="m 47.872072,77.400261 v 1.756999 h 2.335774 q 0.542603,0 0.795817,-0.211874 0.253215,-0.217041 0.253215,-0.666626 0,-0.454752 -0.253215,-0.666626 -0.253214,-0.211873 -0.795817,-0.211873 z m 2.361612,4.88859 q 0.547771,0 0.795817,-0.211873 0.248047,-0.217041 0.248047,-0.676961 0,-0.465088 -0.253214,-0.682129 -0.248047,-0.217041 -0.79065,-0.217041 h -2.361612 v 1.788004 z m 0.222209,1.343588 H 46.27527 v -7.596436 h 3.90157 q 0.738973,0 1.198894,0.08268 0.465087,0.08268 0.749308,0.263549 0.418579,0.26355 0.63562,0.682129 0.222209,0.418579 0.222209,0.950847 0,0.63562 -0.273886,1.080037 -0.273885,0.43925 -0.857828,0.738973 0.589111,0.248047 0.868164,0.671794 0.28422,0.418579 0.28422,1.054199 0,1.064534 -0.620117,1.570963 -0.620117,0.501262 -1.927531,0.501262 z"
       style="font-style:normal;font-variant:normal;font-weight:normal;font-stretch:normal;font-size:medium;line-height:1.25;font-family:'HandelGothic BT';-inkscape-font-specification:'HandelGothic BT';letter-spacing:0px;word-spacing:0px;fill:#000000;fill-opacity:1;stroke:none;stroke-width:0.26458332"
       id="path836"
       inkscape:connector-curvature="0" />
    <path
       d="m 59.173707,83.632439 h -2.775025 q -1.224731,0 -1.772501,-0.485759 -0.542603,-0.485758 -0.542603,-1.55546 v -3.534668 h 1.467611 v 3.415812 q 0,0.558105 0.191203,0.74414 0.19637,0.186036 0.775146,0.186036 h 1.18339 v -4.345988 h 1.472779 z"
       style="font-style:normal;font-variant:normal;font-weight:normal;font-stretch:normal;font-size:medium;line-height:1.25;font-family:'HandelGothic BT';-inkscape-font-specification:'HandelGothic BT';letter-spacing:0px;word-spacing:0px;fill:#000000;fill-opacity:1;stroke:none;stroke-width:0.26458332"
       id="path838"
       inkscape:connector-curvature="0" />
    <path
       d="m 62.03658,77.420932 h -1.545125 v -1.384929 h 1.545125 z m 0,6.211507 h -1.545125 v -5.575887 h 1.545125 z"
       style="font-style:normal;font-variant:normal;font-weight:normal;font-stretch:normal;font-size:medium;line-height:1.25;font-family:'HandelGothic BT';-inkscape-font-specification:'HandelGothic BT';letter-spacing:0px;word-spacing:0px;fill:#000000;fill-opacity:1;stroke:none;stroke-width:0.26458332"
       id="path840"
       inkscape:connector-curvature="0" />
    <path
       d="m 64.816774,83.632439 h -1.53479 v -7.596436 h 1.53479 z"
       style="font-style:normal;font-variant:normal;font-weight:normal;font-stretch:normal;font-size:medium;line-height:1.25;font-family:'HandelGothic BT';-inkscape-font-specification:'HandelGothic BT';letter-spacing:0px;word-spacing:0px;fill:#000000;fill-opacity:1;stroke:none;stroke-width:0.26458332"
       id="path842"
       inkscape:connector-curvature="0" />
    <path
       d="m 69.767375,82.438713 v -3.1781 H 68.87854 q -0.894002,0 -1.27124,0.377238 -0.372071,0.37207 -0.372071,1.245402 0,0.847493 0.341065,1.20406 0.346232,0.3514 1.18339,0.3514 z m 1.46761,1.193726 h -2.826701 q -1.281575,0 -1.999877,-0.754476 -0.718303,-0.754476 -0.718303,-2.103231 0,-0.552938 0.149862,-1.012858 0.149861,-0.465088 0.454752,-0.847493 0.361735,-0.459921 0.868164,-0.656291 0.511597,-0.201538 1.343588,-0.201538 h 1.260905 v -2.020549 h 1.46761 z"
       style="font-style:normal;font-variant:normal;font-weight:normal;font-stretch:normal;font-size:medium;line-height:1.25;font-family:'HandelGothic BT';-inkscape-font-specification:'HandelGothic BT';letter-spacing:0px;word-spacing:0px;fill:#000000;fill-opacity:1;stroke:none;stroke-width:0.26458332"
       id="path844"
       inkscape:connector-curvature="0" />
    <path
       d="m 55.726201,88.324348 q -0.254505,0 -0.378051,-0.04201 -0.123546,-0.04324 -0.221147,-0.148255 -0.09019,-0.0939 -0.127252,-0.212499 -0.03706,-0.118604 -0.03706,-0.333574 v -1.079791 h 0.381757 v 1.067436 q 0,0.159374 0.01359,0.224854 0.01482,0.06424 0.04942,0.103778 0.05436,0.06424 0.13343,0.09142 0.07907,0.02718 0.218676,0.02718 h 0.449707 v 0.301452 z"
       style="font-style:normal;font-variant:normal;font-weight:normal;font-stretch:normal;font-size:medium;line-height:1.25;font-family:'HandelGothic BT';-inkscape-font-specification:'HandelGothic BT';letter-spacing:0px;word-spacing:0px;fill:#0093dd;fill-opacity:1;stroke:none;stroke-width:0.18976653"
       id="path847"
       inkscape:connector-curvature="0" />
    <path
       d="m 57.794359,88.324348 h -0.399053 v -1.816124 h 0.399053 z"
       style="font-style:normal;font-variant:normal;font-weight:normal;font-stretch:normal;font-size:medium;line-height:1.25;font-family:'HandelGothic BT';-inkscape-font-specification:'HandelGothic BT';letter-spacing:0px;word-spacing:0px;fill:#0093dd;fill-opacity:1;stroke:none;stroke-width:0.18976653"
       id="path849"
       inkscape:connector-curvature="0" />
    <path
       d="m 59.152129,86.508224 h 0.560898 l 0.463297,1.393597 0.463297,-1.393597 h 0.558428 v 1.816124 h -0.374344 l 0.03089,-1.4146 -0.465768,1.4146 h -0.40523 l -0.480594,-1.429426 0.0383,1.429426 h -0.389169 z"
       style="font-style:normal;font-variant:normal;font-weight:normal;font-stretch:normal;font-size:medium;line-height:1.25;font-family:'HandelGothic BT';-inkscape-font-specification:'HandelGothic BT';letter-spacing:0px;word-spacing:0px;fill:#0093dd;fill-opacity:1;stroke:none;stroke-width:0.18976653"
       id="path851"
       inkscape:connector-curvature="0" />
    <path
       d="m 62.953637,88.324348 h -0.399054 v -1.816124 h 0.399054 z"
       style="font-style:normal;font-variant:normal;font-weight:normal;font-stretch:normal;font-size:medium;line-height:1.25;font-family:'HandelGothic BT';-inkscape-font-specification:'HandelGothic BT';letter-spacing:0px;word-spacing:0px;fill:#0093dd;fill-opacity:1;stroke:none;stroke-width:0.18976653"
       id="path853"
       inkscape:connector-curvature="0" />
    <path
       d="m 64.707988,86.826972 h -0.586843 v -0.316278 h 1.571504 v 0.316278 h -0.589314 v 1.497376 h -0.395347 z"
       style="font-style:normal;font-variant:normal;font-weight:normal;font-stretch:normal;font-size:medium;line-height:1.25;font-family:'HandelGothic BT';-inkscape-font-specification:'HandelGothic BT';letter-spacing:0px;word-spacing:0px;fill:#0093dd;fill-opacity:1;stroke:none;stroke-width:0.18976653"
       id="path855"
       inkscape:connector-curvature="0" />
    <path
       d="m 67.60514,86.824501 q -0.207557,0 -0.313807,0.103779 -0.105014,0.103778 -0.116133,0.317513 l 1.057553,0.0012 v 0.316278 h -1.060024 q 0.0012,0.237208 0.100073,0.340986 0.100072,0.103779 0.332338,0.103779 h 0.627613 v 0.316277 h -0.646145 q -0.213734,0 -0.336045,-0.03583 -0.12231,-0.03706 -0.229795,-0.123546 -0.139607,-0.111191 -0.210028,-0.289097 -0.06919,-0.179142 -0.06919,-0.427469 0,-0.481829 0.208793,-0.710389 0.208792,-0.229795 0.64738,-0.229795 h 0.635026 v 0.316277 z"
       style="font-style:normal;font-variant:normal;font-weight:normal;font-stretch:normal;font-size:medium;line-height:1.25;font-family:'HandelGothic BT';-inkscape-font-specification:'HandelGothic BT';letter-spacing:0px;word-spacing:0px;fill:#0093dd;fill-opacity:1;stroke:none;stroke-width:0.18976653"
       id="path857"
       inkscape:connector-curvature="0" />
    <path
       d="m 70.368862,86.824501 h -0.442294 v 1.18357 h 0.442294 q 0.253269,0 0.349635,-0.127252 0.09637,-0.127253 0.09637,-0.464533 0,-0.336045 -0.09637,-0.463297 -0.09637,-0.128488 -0.349635,-0.128488 z m -0.824051,-0.316277 h 0.831464 q 0.438588,0 0.647381,0.229795 0.208792,0.22856 0.208792,0.710389 0,0.248327 -0.07042,0.427469 -0.06919,0.177906 -0.208792,0.289097 -0.107485,0.08648 -0.229796,0.123546 -0.12231,0.03583 -0.336045,0.03583 h -0.842583 z"
       style="font-style:normal;font-variant:normal;font-weight:normal;font-stretch:normal;font-size:medium;line-height:1.25;font-family:'HandelGothic BT';-inkscape-font-specification:'HandelGothic BT';letter-spacing:0px;word-spacing:0px;fill:#0093dd;fill-opacity:1;stroke:none;stroke-width:0.18976653"
       id="path859"
       inkscape:connector-curvature="0" />
    <g
       id="text26"
       style="font-style:normal;font-weight:normal;font-size:3.52777767px;line-height:1.25;font-family:sans-serif;letter-spacing:0px;word-spacing:0px;fill:#0093dd;fill-opacity:1;stroke:none;stroke-width:0.26458332"
       aria-label="C" />
    <path
       id="rect4536"
       style="fill:#0093dd;fill-opacity:1;stroke-width:0.27076575"
       d="m 24.785788,84.325508 h 46.44614 v 1.763353 h -46.44614 z m -2.95633,-6.635364 q -1.322917,0 -1.908583,0.840604 -0.578776,0.840603 -0.578776,2.762966 0,1.667426 0.558105,2.349555 0.558106,0.682129 1.929254,0.682129 h 3.500217 v 1.763889 h -3.60357 q -1.192003,0 -1.874132,-0.199816 -0.682129,-0.206705 -1.281575,-0.689019 -0.778592,-0.620117 -1.171333,-1.612304 -0.38585,-0.999078 -0.38585,-2.384006 0,-2.687175 1.164442,-3.96186 1.164442,-1.281576 3.61046,-1.281576 h 3.541558 v 1.729438 z" />
  </g>
</svg>
